<svg xmlns="http://www.w3.org/2000/svg" version="1.1" xmlns:xlink="http://www.w3.org/1999/xlink" xmlns:svgjs="http://svgjs.dev/svgjs" width="1440" height="560" preserveAspectRatio="none" viewBox="0 0 1440 560"><g mask="url(&quot;#SvgjsMask1013&quot;)" fill="none"><path d="M831.46-64.45C709.95-63.25 615.41 58.7 363.13 65.66 110.86 72.62 26.9 304.69-105.19 312.06" stroke="rgba(194, 51, 51, 0.58)" stroke-width="2"></path><path d="M685.76-49.89C529.75 14.65 502.45 492.41 290.54 497.73 78.64 503.05 10.66 266.17-104.67 256.93" stroke="rgba(194, 51, 51, 0.58)" stroke-width="2"></path><path d="M1394.17-48.39C1273.49-47.21 1161.99 80.2 928.88 80.23 695.77 80.26 696.24 10.23 463.59 10.23 230.94 10.23 115.93 80.03-1.7 80.23" stroke="rgba(194, 51, 51, 0.58)" stroke-width="2"></path><path d="M939.18-34.72C798.42 0.44 755.29 375.29 535.86 382.56 316.42 389.83 334.19 312.56 132.53 312.56-69.13 312.56-168.45 382.3-270.79 382.56" stroke="rgba(194, 51, 51, 0.58)" stroke-width="2"></path><path d="M917.36-33.17C763.58-21.85 675.07 270.03 385.78 279.66 96.49 289.29-8.02 423.95-145.8 425.26" stroke="rgba(194, 51, 51, 0.58)" stroke-width="2"></path></g><defs><mask id="SvgjsMask1013"><rect width="1440" height="560" fill="#ffffff"></rect></mask></defs></svg>